<svg xmlns="http://www.w3.org/2000/svg" xmlns:svg="http://www.w3.org/2000/svg" id="svg548" width="400pt" height="400pt"><metadata id="metadata2409"/><defs id="defs550"><filter id="filter4788"><feGaussianBlur id="feGaussianBlur4790" stdDeviation="6.547"/></filter></defs><path id="path801" d="M 231.6081,322.70011 L 268.7811,478.58911 L 293.9641,320.30211 L 358.7171,355.07711 C 374.3061,340.68811 388.6961,325.09911 404.2841,314.30611 C 424.6701,320.30211 477.4321,333.49211 485.8261,337.08911 L 465.4411,268.73911 L 496.6181,213.57811 L 465.4411,160.81611 L 479.8301,84.070807 L 400.6871,105.65501 L 337.1331,63.685507 L 257.9891,117.64711 L 183.6421,68.481907 L 127.2821,118.84611 L 44.541707,104.45621 L 79.316807,174.00611 L 38.546007,238.76011 L 79.316807,280.73011 L 54.134807,363.47111 L 130.8791,331.09411 L 177.6471,380.25911 L 231.6081,322.70011 z" style="fill-opacity:.498039;fill-rule:evenodd;stroke-width:2.5;fill:#000;filter:url(#filter4788)"/><path id="path592" d="M 217.045,308.137 L 254.218,464.026 L 279.401,305.739 L 344.154,340.514 C 359.743,326.125 374.133,310.536 389.721,299.743 C 410.107,305.739 462.869,318.929 471.263,322.526 L 450.878,254.176 L 482.055,199.015 L 450.878,146.253 L 465.267,69.5077 L 386.124,91.0919 L 322.57,49.1224 L 243.426,103.084 L 169.079,53.9188 L 112.719,104.283 L 29.9786,89.8931 L 64.7537,159.443 L 23.9829,224.197 L 64.7537,266.167 L 39.5717,348.908 L 116.316,316.531 L 163.084,365.696 L 217.045,308.137 z" style="fill:#fff;fill-rule:evenodd;stroke:#000;stroke-width:10;stroke-linejoin:round;stroke-dasharray:none"/><metadata id="metadata2411"/></svg>