<svg xmlns="http://www.w3.org/2000/svg" xmlns:svg="http://www.w3.org/2000/svg" id="svg548" width="400pt" height="400pt"><metadata id="metadata8"/><defs id="defs550"><filter id="filter4261"><feGaussianBlur id="feGaussianBlur4263" stdDeviation="6.868"/></filter></defs><path id="path796" d="M 253.27348,30.840615 C 144.11252,32.594977 47.827808,93.437371 27.385684,179.74686 C 4.0232575,278.38628 88.522142,373.10863 216.01113,391.18436 L 217.28974,391.12186 L 217.98993,391.68436 L 215.09784,391.77811 L 396.1734,476.90311 L 322.77509,387.18436 C 410.95131,367.71203 472.76761,315.0441 489.29885,245.24686 C 512.66128,146.60745 428.13193,51.885091 300.64295,33.809365 C 284.70683,31.549899 268.86792,30.589992 253.27348,30.840615 z M 322.31844,387.21561 L 322.59243,387.21561 L 322.59243,387.68436 L 322.31844,387.21561 z" style="font-size:12px;fill:#000;fill-opacity:.498039;fill-rule:evenodd;stroke-width:2.5;filter:url(#filter4261)"/><path id="path795" d="M 240.66275,22.75 C 131.50179,24.504362 35.217073,85.346756 14.77495,171.65625 C -8.5874766,270.29567 75.911407,365.01802 203.4004,383.09375 L 204.67901,383.03125 L 205.3792,383.59375 L 202.48711,383.6875 L 383.56267,468.8125 L 310.16435,379.09375 C 398.34058,359.62142 460.15688,306.95349 476.68811,237.15625 C 500.05055,138.51683 415.5212,43.794476 288.03222,25.71875 C 272.0961,23.459284 256.25717,22.499377 240.66275,22.75 z M 309.70771,379.125 L 309.98169,379.125 L 309.98169,379.59375 L 309.70771,379.125 z" style="font-size:12px;fill:#fff;fill-rule:evenodd;stroke:#000;stroke-width:10;stroke-linejoin:round;stroke-dasharray:none"/><metadata id="metadata10"/></svg>