<svg xmlns="http://www.w3.org/2000/svg" xmlns:svg="http://www.w3.org/2000/svg" id="svg548" width="400pt" height="400pt"><metadata id="metadata8"/><defs id="defs550"><filter id="filter5327"><feGaussianBlur id="feGaussianBlur5329" stdDeviation="6.592"/></filter></defs><path id="path811" d="M 234.84435,324.31823 L 459.08435,486.20323 L 297.20035,321.92023 L 375.14435,354.29723 C 388.33435,333.91223 395.52935,330.31423 407.52035,315.92423 C 427.90635,321.92023 480.66835,335.11023 489.06235,338.70723 L 468.67735,270.35723 L 499.85435,215.19623 L 468.67735,162.43423 L 483.06635,85.68893 L 403.92335,107.27313 L 340.36935,65.30363 L 261.22535,119.26523 L 186.87835,70.10003 L 130.51835,120.46423 L 47.777953,106.07433 L 82.553053,175.62423 L 41.782253,240.37823 L 82.553053,282.34823 L 57.371053,365.08923 L 134.11535,332.71223 L 186.87835,380.67823 L 234.84435,324.31823 z" style="fill:#000;fill-opacity:.498039;fill-rule:evenodd;stroke:none;stroke-width:2.5;stroke-linecap:butt;stroke-linejoin:miter;stroke-dasharray:none;stroke-opacity:1;filter:url(#filter5327)"/><path id="path592" d="M 217.045,308.137 L 441.285,470.022 L 279.401,305.739 L 357.345,338.116 C 370.535,317.731 377.73,314.133 389.721,299.743 C 410.107,305.739 462.869,318.929 471.263,322.526 L 450.878,254.176 L 482.055,199.015 L 450.878,146.253 L 465.267,69.5077 L 386.124,91.0919 L 322.57,49.1224 L 243.426,103.084 L 169.079,53.9188 L 112.719,104.283 L 29.9786,89.8931 L 64.7537,159.443 L 23.9829,224.197 L 64.7537,266.167 L 39.5717,348.908 L 116.316,316.531 L 169.079,364.497 L 217.045,308.137 z" style="fill:#fff;fill-opacity:1;fill-rule:evenodd;stroke:#000;stroke-width:10;stroke-linecap:butt;stroke-linejoin:round;stroke-dasharray:none;stroke-opacity:1"/><metadata id="metadata10"/></svg>