<svg xmlns="http://www.w3.org/2000/svg" xmlns:svg="http://www.w3.org/2000/svg" id="svg548" width="400pt" height="400pt"><metadata id="metadata2397"/><defs id="defs550"><filter id="filter3734"><feGaussianBlur id="feGaussianBlur3736" stdDeviation="5.81"/></filter></defs><path id="path841" d="M 274.76391,333.76669 L 358.93439,360.45108 C 374.52339,346.06208 388.91339,330.47308 404.50139,319.68008 C 424.88739,325.67608 477.64939,338.86608 486.04339,342.46308 L 465.65839,274.11308 L 496.83539,218.95208 L 465.65839,166.19008 L 480.04739,89.444778 L 400.90439,111.02898 L 337.35039,69.059482 L 258.20639,123.02108 L 183.85939,73.855882 L 127.49939,124.22008 L 44.758996,109.83018 L 79.534096,179.38008 L 38.763296,244.13408 L 79.534096,286.10408 L 54.352096,368.84508 L 131.09639,336.46808 L 177.86439,385.63308 L 274.76391,333.76669 z" style="fill-opacity:.498039;fill-rule:evenodd;stroke-width:2.5;fill:#000;filter:url(#filter3734)"/><path id="path592" d="M 259.98352,313.82961 L 344.154,340.514 C 359.743,326.125 374.133,310.536 389.721,299.743 C 410.107,305.739 462.869,318.929 471.263,322.526 L 450.878,254.176 L 482.055,199.015 L 450.878,146.253 L 465.267,69.5077 L 386.124,91.0919 L 322.57,49.1224 L 243.426,103.084 L 169.079,53.9188 L 112.719,104.283 L 29.9786,89.8931 L 64.7537,159.443 L 23.9829,224.197 L 64.7537,266.167 L 39.5717,348.908 L 116.316,316.531 L 163.084,365.696 L 259.98352,313.82961 z" style="fill:#fff;fill-rule:evenodd;stroke:#000;stroke-width:10;stroke-linejoin:round;stroke-dasharray:none"/><metadata id="metadata2399"/></svg>