<svg xmlns="http://www.w3.org/2000/svg" xmlns:svg="http://www.w3.org/2000/svg" xmlns:xlink="http://www.w3.org/1999/xlink" id="svg9121" width="48" height="48" version="1.1"><defs id="defs3"><linearGradient id="linearGradient2309"><stop style="stop-color:#686b65;stop-opacity:1" id="stop2311" offset="0"/><stop style="stop-color:#686b65;stop-opacity:0" id="stop2313" offset="1"/></linearGradient><linearGradient id="linearGradient2301"><stop style="stop-color:#fff;stop-opacity:1" id="stop2303" offset="0"/><stop style="stop-color:#fff;stop-opacity:0" id="stop2305" offset="1"/></linearGradient><linearGradient id="linearGradient2287"><stop style="stop-color:#fff;stop-opacity:1" id="stop2289" offset="0"/><stop style="stop-color:#cdcdcd;stop-opacity:.77319586" id="stop2291" offset="1"/></linearGradient><linearGradient id="linearGradient2224"><stop style="stop-color:#32342f;stop-opacity:.54639173" id="stop2226" offset="0"/><stop style="stop-color:#32342f;stop-opacity:0" id="stop2228" offset="1"/></linearGradient><radialGradient id="radialGradient2230" cx="24.042" cy="42.242" r="17.577" fx="24.042" fy="42.242" gradientTransform="matrix(1.000000,0.000000,0.000000,0.304598,1.552820e-15,29.37527)" gradientUnits="userSpaceOnUse" xlink:href="#linearGradient2224"/><linearGradient id="linearGradient3441"><stop style="stop-color:#888a85;stop-opacity:1" id="stop3443" offset="0"/><stop style="stop-color:#fcfff6;stop-opacity:1" id="stop3445" offset="1"/></linearGradient><linearGradient id="linearGradient2655"><stop style="stop-color:#eeeeec;stop-opacity:1" id="stop2657" offset="0"/><stop style="stop-color:#eeeeec;stop-opacity:0" id="stop2659" offset="1"/></linearGradient><linearGradient id="linearGradient6157"><stop id="stop6159" offset="0" style="stop-color:#babdb6;stop-opacity:1"/><stop id="stop6165" offset=".5" style="stop-color:#dfe2da;stop-opacity:1"/><stop id="stop6161" offset="1" style="stop-color:#babdb6;stop-opacity:1"/></linearGradient><linearGradient id="linearGradient10677"><stop style="stop-color:#6f4501;stop-opacity:1" id="stop10679" offset="0"/><stop style="stop-color:#6f4501;stop-opacity:0" id="stop10681" offset="1"/></linearGradient><linearGradient id="linearGradient8391"><stop style="stop-color:#8f5902;stop-opacity:1" id="stop8393" offset="0"/><stop style="stop-color:#8f5902;stop-opacity:0" id="stop8395" offset="1"/></linearGradient><linearGradient id="linearGradient7625"><stop style="stop-color:#505b5f;stop-opacity:1" id="stop7627" offset="0"/><stop style="stop-color:#2e3436;stop-opacity:1" id="stop7629" offset="1"/></linearGradient><linearGradient id="linearGradient5333"><stop style="stop-color:#555753;stop-opacity:0" id="stop5335" offset="0"/><stop style="stop-color:#555753;stop-opacity:1" id="stop5341" offset=".5"/><stop style="stop-color:#555753;stop-opacity:0" id="stop5337" offset="1"/></linearGradient><linearGradient id="linearGradient5325"><stop style="stop-color:#555753;stop-opacity:1" id="stop5327" offset="0"/><stop style="stop-color:#555753;stop-opacity:0" id="stop5329" offset="1"/></linearGradient><linearGradient id="linearGradient5229"><stop id="stop5231" offset="0" style="stop-color:#969993;stop-opacity:1"/><stop id="stop5237" offset=".5" style="stop-color:#d4d8d0;stop-opacity:1"/><stop id="stop5233" offset="1" style="stop-color:#abaea7;stop-opacity:1"/></linearGradient><linearGradient id="linearGradient11940"><stop id="stop11942" offset="0" style="stop-color:#fcf18f;stop-opacity:1"/><stop id="stop11944" offset="1" style="stop-color:#fcf18f;stop-opacity:0"/></linearGradient><linearGradient id="linearGradient11932"><stop id="stop11934" offset="0" style="stop-color:#b59300;stop-opacity:1"/><stop id="stop11936" offset="1" style="stop-color:#b59300;stop-opacity:0"/></linearGradient><linearGradient id="linearGradient11924"><stop id="stop11926" offset="0" style="stop-color:#000;stop-opacity:1"/><stop id="stop11928" offset="1" style="stop-color:#000;stop-opacity:0"/></linearGradient><linearGradient id="linearGradient11916"><stop id="stop11918" offset="0" style="stop-color:#8b7200;stop-opacity:1"/><stop id="stop11920" offset="1" style="stop-color:#544500;stop-opacity:0"/></linearGradient><linearGradient id="linearGradient11124"><stop id="stop11126" offset="0" style="stop-color:#fff;stop-opacity:1"/><stop id="stop11128" offset="1" style="stop-color:#fff;stop-opacity:0"/></linearGradient><linearGradient id="linearGradient19124"><stop style="stop-color:#fcf18f;stop-opacity:1" id="stop19126" offset="0"/><stop style="stop-color:#fcf8ce;stop-opacity:1" id="stop19128" offset="1"/></linearGradient><linearGradient id="linearGradient19116"><stop style="stop-color:#987c00;stop-opacity:1" id="stop19118" offset="0"/><stop style="stop-color:#5f4d00;stop-opacity:1" id="stop19120" offset="1"/></linearGradient><linearGradient id="linearGradient19108"><stop style="stop-color:#edd400;stop-opacity:0" id="stop19110" offset="0"/><stop style="stop-color:#b8a500;stop-opacity:1" id="stop19112" offset="1"/></linearGradient><linearGradient id="linearGradient18320"><stop style="stop-color:#e9b96e;stop-opacity:1" id="stop18322" offset="0"/><stop style="stop-color:#b88433;stop-opacity:1" id="stop18324" offset="1"/></linearGradient><linearGradient id="linearGradient14520"><stop style="stop-color:#fcfae2;stop-opacity:0" id="stop14522" offset="0"/><stop style="stop-color:#b8ab27;stop-opacity:1" id="stop14524" offset="1"/></linearGradient><linearGradient id="linearGradient14526" x1="23.411" x2="21.685" y1=".822" y2="6.411" gradientTransform="scale(0.831950,1.201995)" gradientUnits="userSpaceOnUse" xlink:href="#linearGradient14520"/><linearGradient id="linearGradient18326" x1="11.712" x2="15.544" y1="31.134" y2="33.482" gradientTransform="matrix(1.228073,0.000000,0.000000,1.407676,-1.888866,-14.16649)" gradientUnits="userSpaceOnUse" xlink:href="#linearGradient18320"/><linearGradient id="linearGradient19114" x1="31.654" x2="28.394" y1="3.48" y2="12.564" gradientTransform="scale(0.827650,1.208240)" gradientUnits="userSpaceOnUse" xlink:href="#linearGradient19108"/><linearGradient id="linearGradient11152" x1="15.751" x2="24.77" y1="11.247" y2="29.503" gradientTransform="matrix(0.831950,0.000000,0.000000,1.201995,100.1096,-33.10918)" gradientUnits="userSpaceOnUse" xlink:href="#linearGradient14520"/><linearGradient id="linearGradient11154" x1="11.712" x2="15.544" y1="31.134" y2="33.482" gradientTransform="matrix(0.934030,0.000000,0.000000,1.070630,100.1096,-33.10918)" gradientUnits="userSpaceOnUse" xlink:href="#linearGradient18320"/><linearGradient id="linearGradient11156" x1="20.19" x2="29.476" y1="13.216" y2="19.211" gradientTransform="matrix(0.827650,0.000000,0.000000,1.208240,100.1096,-33.10918)" gradientUnits="userSpaceOnUse" xlink:href="#linearGradient19108"/><linearGradient id="linearGradient11930" x1="8.165" x2="33.965" y1="35.224" y2="4.882" gradientTransform="scale(0.824694,1.212571)" gradientUnits="userSpaceOnUse" xlink:href="#linearGradient11924"/><linearGradient id="linearGradient11938" x1="27.062" x2="34.06" y1="16.267" y2="2.781" gradientTransform="scale(0.800741,1.248844)" gradientUnits="userSpaceOnUse" xlink:href="#linearGradient11932"/><linearGradient id="linearGradient11946" x1="14.395" x2="16.707" y1="4.431" y2="-.485" gradientTransform="scale(0.838071,1.193216)" gradientUnits="userSpaceOnUse" xlink:href="#linearGradient11940"/><linearGradient id="linearGradient13466" x1="8.165" x2="33.965" y1="35.224" y2="4.882" gradientTransform="matrix(0.824694,0.000000,0.000000,1.212571,17.09202,-2.523485)" gradientUnits="userSpaceOnUse" xlink:href="#linearGradient11924"/><linearGradient id="linearGradient13472" x1="22.481" x2="24.142" y1="7.256" y2="2.65" gradientTransform="scale(0.826560,1.209833)" gradientUnits="userSpaceOnUse" xlink:href="#linearGradient11916"/><linearGradient id="linearGradient1949" x1="31.654" x2="28.394" y1="3.48" y2="12.564" gradientTransform="scale(0.827650,1.208240)" gradientUnits="userSpaceOnUse" xlink:href="#linearGradient19108"/><linearGradient id="linearGradient1951" x1="11.712" x2="15.544" y1="31.134" y2="33.482" gradientTransform="matrix(1.228073,4.302344e-17,-4.316300e-17,1.407676,-1.888866,-14.16649)" gradientUnits="userSpaceOnUse" xlink:href="#linearGradient18320"/><linearGradient id="linearGradient1953" x1="14.395" x2="16.707" y1="4.431" y2="-.485" gradientTransform="scale(0.838071,1.193216)" gradientUnits="userSpaceOnUse" xlink:href="#linearGradient11940"/><linearGradient id="linearGradient1955" x1="27.062" x2="34.06" y1="16.267" y2="2.781" gradientTransform="scale(0.800741,1.248844)" gradientUnits="userSpaceOnUse" xlink:href="#linearGradient11932"/><linearGradient id="linearGradient1957" x1="23.411" x2="21.685" y1=".822" y2="6.411" gradientTransform="scale(0.831950,1.201995)" gradientUnits="userSpaceOnUse" xlink:href="#linearGradient14520"/><linearGradient id="linearGradient1959" x1="22.481" x2="24.142" y1="7.256" y2="2.65" gradientTransform="scale(0.826560,1.209833)" gradientUnits="userSpaceOnUse" xlink:href="#linearGradient11916"/><linearGradient id="linearGradient4295" x1="32.368" x2="35.239" y1="6.059" y2="-3.664" gradientTransform="matrix(0.810222,0.163528,-0.239356,1.185920,0.000000,0.000000)" gradientUnits="userSpaceOnUse" xlink:href="#linearGradient11916"/><linearGradient id="linearGradient4300" x1="23.411" x2="21.685" y1=".822" y2="6.411" gradientTransform="matrix(0.815505,0.164595,-0.237805,1.178235,8.297767,0.197690)" gradientUnits="userSpaceOnUse" xlink:href="#linearGradient14520"/><linearGradient id="linearGradient4303" x1="43.605" x2="48.134" y1="9.661" y2="1.575" gradientTransform="matrix(0.784913,0.158420,-0.247074,1.224159,0.000000,0.000000)" gradientUnits="userSpaceOnUse" xlink:href="#linearGradient11932"/><linearGradient id="linearGradient4306" x1="28.251" x2="29.906" y1="1.55" y2="-2.337" gradientTransform="matrix(0.821506,0.165806,-0.236068,1.169631,0.000000,0.000000)" gradientUnits="userSpaceOnUse" xlink:href="#linearGradient11940"/><linearGradient id="linearGradient4309" x1="11.712" x2="15.544" y1="31.134" y2="33.482" gradientTransform="matrix(1.203798,0.242964,-0.278497,1.379850,9.248965,-14.06247)" gradientUnits="userSpaceOnUse" xlink:href="#linearGradient18320"/><linearGradient id="linearGradient4312" x1="41.323" x2="38.269" y1="-3.198" y2="11.366" gradientTransform="matrix(0.811291,0.163744,-0.239041,1.184358,0.000000,0.000000)" gradientUnits="userSpaceOnUse" xlink:href="#linearGradient19108"/><linearGradient id="linearGradient3805" x1="24.743" x2="31.589" y1="2.311" y2="2.438" gradientTransform="matrix(0.821255,0.715182,-0.603048,0.692490,0.000000,0.000000)" gradientUnits="userSpaceOnUse" xlink:href="#linearGradient5229"/><linearGradient id="linearGradient5339" x1="21.869" x2="30.635" y1="15.558" y2="24.778" gradientTransform="scale(1.064121,0.939743)" gradientUnits="userSpaceOnUse" xlink:href="#linearGradient5333"/><linearGradient id="linearGradient6107" x1="15.356" x2="20.829" y1="27.317" y2="33.497" gradientTransform="scale(1.061798,0.941799)" gradientUnits="userSpaceOnUse" xlink:href="#linearGradient5333"/><radialGradient id="radialGradient7631" cx="8.912" cy="34.748" r="7.998" fx="9.037" fy="34.483" gradientTransform="matrix(1.130280,0.000000,0.000000,0.884737,0.902354,-0.427463)" gradientUnits="userSpaceOnUse" xlink:href="#linearGradient7625"/><linearGradient id="linearGradient8397" x1="32.138" x2="38.881" y1="14.785" y2="6.917" gradientTransform="scale(1.013347,0.986829)" gradientUnits="userSpaceOnUse" xlink:href="#linearGradient8391"/><linearGradient id="linearGradient10683" x1="32.457" x2="41.377" y1="16.203" y2="5.404" gradientTransform="scale(0.941920,1.061662)" gradientUnits="userSpaceOnUse" xlink:href="#linearGradient10677"/><linearGradient id="linearGradient10685" x1="32.457" x2="41.377" y1="16.203" y2="5.404" gradientTransform="scale(0.941920,1.061662)" gradientUnits="userSpaceOnUse" xlink:href="#linearGradient10677"/><linearGradient id="linearGradient6163" x1="-31.074" x2="-38.257" y1="17.158" y2="7.844" gradientTransform="scale(0.765250,1.306762)" gradientUnits="userSpaceOnUse" xlink:href="#linearGradient6157"/><linearGradient id="linearGradient7714" x1="-31.074" x2="-38.257" y1="17.158" y2="7.844" gradientTransform="matrix(0.603485,0.470548,-0.803519,1.030527,48.59133,29.97432)" gradientUnits="userSpaceOnUse" xlink:href="#linearGradient6157"/><linearGradient id="linearGradient2661" x1="34.563" x2="40.103" y1="12.489" y2="5.7" gradientTransform="scale(0.954299,1.047890)" gradientUnits="userSpaceOnUse" xlink:href="#linearGradient2655"/><linearGradient id="linearGradient3452" x1="54.225" x2="64.746" y1="-3.45" y2="-2.537" gradientTransform="matrix(0.527682,3.007844e-9,-1.465781e-8,1.395766,0.274469,-0.380594)" gradientUnits="userSpaceOnUse" xlink:href="#linearGradient3441"/><linearGradient id="linearGradient2293" x1="17.666" x2="19.18" y1="30.502" y2="22.002" gradientUnits="userSpaceOnUse" xlink:href="#linearGradient2287"/><radialGradient id="radialGradient2297" cx="24.042" cy="42.242" r="17.577" fx="24.042" fy="42.242" gradientTransform="matrix(1.000000,0.000000,0.000000,0.304598,2.474554e-15,29.37527)" gradientUnits="userSpaceOnUse" xlink:href="#linearGradient2224"/><linearGradient id="linearGradient2307" x1="25.728" x2="27.501" y1="12.76" y2="14.135" gradientTransform="matrix(0.902575,0.000000,0.000000,0.902575,2.604411,1.752083)" gradientUnits="userSpaceOnUse" xlink:href="#linearGradient2301"/><linearGradient id="linearGradient2315" x1="32.984" x2="38.27" y1="13.087" y2="5.973" gradientUnits="userSpaceOnUse" xlink:href="#linearGradient2309"/><radialGradient id="radialGradient7234" cx="32.5" cy="16.563" r="14.438" fx="32.5" fy="16.563" gradientUnits="userSpaceOnUse" xlink:href="#linearGradient3251"/><linearGradient id="linearGradient3251"><stop style="stop-color:#fff;stop-opacity:1" id="stop3253" offset="0"/><stop style="stop-color:#fff;stop-opacity:0" id="stop3255" offset="1"/></linearGradient><linearGradient id="linearGradient7236" x1="39" x2="36.375" y1="26.125" y2="20.438" gradientTransform="translate(0.5359996,-1.5010031)" gradientUnits="userSpaceOnUse" xlink:href="#linearGradient3241"/><linearGradient id="linearGradient3241"><stop style="stop-color:#1b1f20;stop-opacity:1" id="stop3243" offset="0"/><stop style="stop-color:#babdb6;stop-opacity:1" id="stop3245" offset="1"/></linearGradient><linearGradient id="linearGradient7238" x1="42.906" x2="44.813" y1="42.219" y2="41.406" gradientTransform="translate(0.5359996,-1.5010031)" gradientUnits="userSpaceOnUse" xlink:href="#linearGradient3220"/><linearGradient id="linearGradient3220"><stop style="stop-color:#2e3436;stop-opacity:1" id="stop3222" offset="0"/><stop id="stop3228" offset=".644" style="stop-color:#888a85;stop-opacity:1"/><stop style="stop-color:#555753;stop-opacity:1" id="stop3224" offset="1"/></linearGradient><linearGradient id="linearGradient7240" x1="31.994" x2="37.724" y1="16.859" y2="16.859" gradientUnits="userSpaceOnUse" xlink:href="#linearGradient3338"/><linearGradient id="linearGradient3338"><stop style="stop-color:#eeeeec;stop-opacity:1" id="stop3340" offset="0"/><stop id="stop3346" offset=".789" style="stop-color:#fff;stop-opacity:1"/><stop style="stop-color:#eeeeec;stop-opacity:1" id="stop3342" offset="1"/></linearGradient><linearGradient id="linearGradient2941" x1="31.994" x2="37.724" y1="16.859" y2="16.859" gradientUnits="userSpaceOnUse" xlink:href="#linearGradient3338"/><linearGradient id="linearGradient7232" x1="31" x2="3.259" y1="12.875" y2="24.894" gradientTransform="translate(0.5359996,5.4989969)" gradientUnits="userSpaceOnUse" xlink:href="#linearGradient3339"/><linearGradient id="linearGradient3339"><stop style="stop-color:#fff;stop-opacity:1" id="stop3341" offset="0"/><stop style="stop-color:#fff;stop-opacity:0" id="stop3343" offset="1"/></linearGradient></defs><metadata id="metadata4"/><g id="layer1"><path style="opacity:.48295455;fill:url(#radialGradient2230);fill-opacity:1;fill-rule:evenodd;stroke:none;stroke-width:1.07686412;stroke-linecap:round;stroke-linejoin:round;stroke-miterlimit:4;stroke-dasharray:none;stroke-dashoffset:0;stroke-opacity:1" id="path2222" d="M 41.618284 42.24213 A 17.576654 5.3538084 0 1 1 6.4649754,42.24213 A 17.576654 5.3538084 0 1 1 41.618284 42.24213 z" transform="matrix(0.673638,0.000000,0.000000,0.430086,-0.605052,20.90465)"/><path id="path7706" d="M 2.8839231,40.604807 C 2.8289019,40.675373 16.747691,40.499044 28.467196,32.686242 L 25.880399,30.669273 L 28.874256,26.8296 L 19.439728,19.473343 L 2.8839231,40.604807 z" style="fill:url(#linearGradient7714);fill-opacity:1;fill-rule:evenodd;stroke:#686b65;stroke-width:1.0000007;stroke-linecap:butt;stroke-linejoin:miter;stroke-miterlimit:4;stroke-opacity:1"/><path id="path7708" d="M 5.4018936,39.015942 C 9.8468723,38.336507 18.489609,36.512606 26.767934,32.643585 L 24.476866,30.857202 L 29.930295,23.863084 L 22.072991,17.736614 L 5.4018936,39.015942 z" style="stroke-opacity:1;stroke-miterlimit:4;stroke-linejoin:miter;stroke-linecap:butt;stroke-width:1.0000007;stroke:url(#linearGradient2293);fill-rule:evenodd;fill-opacity:1;fill:none"/><path id="path7710" d="M 25.184875,30.813965 C 16.717482,37.347736 5.8763072,37.531471 5.9121195,37.508799 L 4.1515976,39.859872 C 4.1959591,39.943637 16.629555,39.727546 27.636682,32.738124 L 25.184875,30.813965 z" style="fill:#fff;fill-opacity:1;fill-rule:evenodd;stroke:none;stroke-width:.25pt;stroke-linecap:butt;stroke-linejoin:miter;stroke-opacity:1"/><path id="path7712" d="M 33.128941,0.021384731 L 18.603207,18.650892 C 21.372977,21.055374 22.372377,22.637098 20.25171,25.552907 L 23.708442,28.248177 C 25.447618,25.865954 27.221201,25.210765 30.296105,27.96658 L 45.12593,9.5458368" style="fill:url(#linearGradient2661);fill-opacity:1;fill-rule:evenodd;stroke:url(#linearGradient2315);stroke-width:1.00000072;stroke-linecap:butt;stroke-linejoin:miter;stroke-miterlimit:4;stroke-opacity:1;opacity:1;color:#000;marker:none;marker-start:none;marker-mid:none;marker-end:none;stroke-dasharray:none;stroke-dashoffset:0;visibility:visible;display:inline;overflow:visible"/><rect style="fill:#eeeeec;fill-opacity:1;fill-rule:nonzero;stroke:url(#linearGradient3452);stroke-width:1.0000583;stroke-linecap:round;stroke-linejoin:miter;stroke-miterlimit:4;stroke-dashoffset:0;stroke-opacity:1" id="rect3450" width="4.596" height="14.064" x="31.493" y="-11.786" rx="1.616" ry="1.414" transform="matrix(0.794294,0.607534,-0.619919,0.784665,0.000000,0.000000)"/><path id="path2295" d="M 41.618284 42.24213 A 17.576654 5.3538084 0 1 1 6.4649754,42.24213 A 17.576654 5.3538084 0 1 1 41.618284 42.24213 z" transform="matrix(1.281689,0.000000,0.000000,1.098472,-7.036086,-7.532814)" style="opacity:.32954544;fill:url(#radialGradient2297);fill-opacity:1;fill-rule:evenodd;stroke:none;stroke-width:1.07686412;stroke-linecap:round;stroke-linejoin:round;stroke-miterlimit:4;stroke-dasharray:none;stroke-dashoffset:0;stroke-opacity:1"/><path style="opacity:1;color:#000;fill:url(#linearGradient2307);fill-opacity:1;fill-rule:evenodd;stroke:none;stroke-width:1.00000072;stroke-linecap:butt;stroke-linejoin:miter;marker:none;marker-start:none;marker-mid:none;marker-end:none;stroke-miterlimit:4;stroke-dasharray:none;stroke-dashoffset:0;stroke-opacity:1;visibility:visible;display:inline;overflow:visible" id="path2299" d="M 32.505759,1.7713847 L 19.395197,18.585909 C 21.895122,20.756134 22.797155,22.183758 20.883095,24.815494 L 24.003054,27.248177 C 25.57279,25.098042 27.173582,24.506685 29.948913,26.994015 L 43.33394,10.367915"/><path style="opacity:.48295456;color:#000;fill:#fff;fill-opacity:1;fill-rule:evenodd;stroke:none;stroke-width:1.00000072;stroke-linecap:butt;stroke-linejoin:miter;marker:none;marker-start:none;marker-mid:none;marker-end:none;stroke-miterlimit:4;stroke-dasharray:none;stroke-dashoffset:0;stroke-opacity:1;visibility:visible;display:inline;overflow:visible" id="path2317" d="M 43.125,11 L 30.25,27.25 C 27.25,25.5 26.375,24.75 23.625,27.5 L 20.875,25.375 L 23.625,26.5 C 25.875,24.375 27.625,24.25 29.75,26.375 L 43.125,11 z"/><path style="opacity:.11363636;color:#000;fill:#000;fill-opacity:1;fill-rule:evenodd;stroke:none;stroke-width:1.00000072;stroke-linecap:butt;stroke-linejoin:miter;marker:none;marker-start:none;marker-mid:none;marker-end:none;stroke-miterlimit:4;stroke-dasharray:none;stroke-dashoffset:0;stroke-opacity:1;visibility:visible;display:inline;overflow:visible" id="path2319" d="M 20,26.0625 L 23.6875,30.25 C 26.0625,26.875 26.75,27.3125 27.625,27.5625 L 28.1875,27.0625 C 26.6875,26.25 25.25,26.6875 23.75,28.875 L 20,26.0625 z"/><path style="opacity:.44444442;fill:#ff0;fill-opacity:1;fill-rule:evenodd;stroke:none;display:inline" id="path3337" d="M 0.7784758,21.909509 C 28.023226,23.586508 10.826273,7.891906 31.876516,7.351778 l 5.30983,11.105205 C 27.571587,13.995506 21.043231,37.019967 0.6564914,23.534738 l 0.1219844,-1.625229 z"/><g id="g2894" transform="translate(-0.61490688,-5.0306255)"><path id="path3249" d="M 46.9375,16.5625 C 46.9375,24.536111 40.473611,31 32.5,31 24.526389,31 18.0625,24.536111 18.0625,16.5625 18.0625,8.5888889 24.526389,2.125 32.5,2.125 c 7.973611,0 14.4375,6.4638889 14.4375,14.4375 z" transform="matrix(0.6659299,0,0,0.6659299,11.393279,4.9070349)" style="fill:url(#radialGradient7234);fill-opacity:1;stroke:none;display:inline"/><path id="path3218" d="m 33.035999,14.998998 13,29.000001" style="fill:none;stroke:url(#linearGradient7236);stroke-width:4;stroke-linecap:round;stroke-linejoin:miter;stroke-miterlimit:4;stroke-opacity:1;stroke-dasharray:none;display:inline"/><path id="path2243" d="m 33.035999,14.998998 13,29.000001" style="fill:#fff;fill-opacity:1;fill-rule:evenodd;stroke:url(#linearGradient7238);stroke-width:2;stroke-linecap:round;stroke-linejoin:miter;stroke-miterlimit:4;stroke-opacity:1;stroke-dasharray:none;display:inline"/><path id="path3331" d="M 15.5,24.75 11.728554,24.195391 9.4510341,27.075687 8.8130572,23.317446 5.3699407,22.041456 8.7470953,20.273343 8.8966522,16.604442 11.621825,19.26993 15.157373,18.278415 13.464468,21.693889 15.5,24.75 z" transform="matrix(1.2726133,0,0,1.2726133,12.072081,-6.6736441)" style="fill:#fff;fill-opacity:1;stroke:none;display:inline"/><path id="path3333" d="M 15.5,24.75 11.728554,24.195391 9.4510341,27.075687 8.8130572,23.317446 5.3699407,22.041456 8.7470953,20.273343 8.8966522,16.604442 11.621825,19.26993 15.157373,18.278415 13.464468,21.693889 15.5,24.75 z" transform="matrix(0.5838837,0.5838837,-0.5838837,0.5838837,24.481283,9.4773739)" style="fill:#fff;fill-opacity:1;stroke:none;display:inline"/><path id="path3335" d="M 15.5,24.75 11.728554,24.195391 9.4510341,27.075687 8.8130572,23.317446 5.3699407,22.041456 8.7470953,20.273343 8.8966522,16.604442 11.621825,19.26993 15.157373,18.278415 13.464468,21.693889 15.5,24.75 z" transform="matrix(0.5791026,0.1286037,-0.1286037,0.5791026,5.2445836,16.598497)" style="fill:#fff;fill-opacity:1;stroke:none;display:inline"/><path id="path3336" d="m 32.9375,11.9375 c -0.05811,0.0063 -0.09582,0.01691 -0.15625,0.03125 -0.300742,0.07555 -0.557097,0.314315 -0.6875,0.59375 -0.130403,0.279435 -0.134816,0.56567 0,0.84375 l 3.75,8.34375 a 0.02694836,0.02694836 0 0 0 0,0.03125 0.02694836,0.02694836 0 0 0 0.03125,0 0.02694836,0.02694836 0 0 0 0.03125,0 0.02694836,0.02694836 0 0 0 0,-0.03125 c 0.234458,-0.405774 0.576958,-0.667125 1.03125,-0.78125 0.248808,-0.05903 0.510721,-0.05104 0.75,0 a 0.02694836,0.02694836 0 0 0 0.03125,0 0.02694836,0.02694836 0 0 0 0,-0.03125 l -3.75,-8.34375 C 33.824845,12.242701 33.483751,11.983006 33.125,11.9375 c -0.06049,-0.0077 -0.129389,-0.0063 -0.1875,0 z" transform="translate(0.00566865,1.9989969)" style="fill:url(#linearGradient2941);fill-opacity:1;fill-rule:evenodd;stroke:none;display:inline"/></g></g></svg>