<svg xmlns="http://www.w3.org/2000/svg" xmlns:svg="http://www.w3.org/2000/svg" xmlns:xlink="http://www.w3.org/1999/xlink" id="svg2" width="440" height="490" version="1.0" style="display:inline;enable-background:new"><metadata id="metadata57"/><defs id="defs4"><linearGradient id="linearGradient6793"><stop id="stop6795" style="stop-color:#44b5e8;stop-opacity:1" offset="0"/><stop id="stop6797" style="stop-color:#116b98;stop-opacity:1" offset="1"/></linearGradient><filter id="filter3383"><feBlend id="feBlend3385" in2="BackgroundImage" mode="multiply"/></filter><filter id="filter3985" width="1.144" height="1.311" x="-.072" y="-.155"><feGaussianBlur id="feGaussianBlur3987" stdDeviation="6.78"/></filter><filter id="filter3989"><feGaussianBlur id="feGaussianBlur3991" stdDeviation="6.78"/></filter><filter id="filter3993" width="1.298" height="1.145" x="-.149" y="-.072"><feGaussianBlur id="feGaussianBlur3995" stdDeviation="6.78"/></filter><filter id="filter3997" width="1.163" height="1.221" x="-.082" y="-.11"><feGaussianBlur id="feGaussianBlur3999" stdDeviation="6.78"/></filter><filter id="filter4001" width="1.15" height="1.257" x="-.075" y="-.129"><feGaussianBlur id="feGaussianBlur4003" stdDeviation="6.78"/></filter><filter id="filter4005" width="1.245" height="1.153" x="-.122" y="-.076"><feGaussianBlur id="feGaussianBlur4007" stdDeviation="6.78"/></filter><filter id="filter4009" width="1.224" height="1.16" x="-.112" y="-.08"><feGaussianBlur id="feGaussianBlur4011" stdDeviation="6.78"/></filter><radialGradient id="radialGradient2607" cx="353.628" cy="241.049" r="220.119" fx="353.628" fy="241.049" gradientTransform="matrix(-1,0,0,0.9878188,582.03434,46.933265)" gradientUnits="userSpaceOnUse" xlink:href="#linearGradient6793"/><radialGradient id="radialGradient2609" cx="353.628" cy="241.049" r="220.119" fx="353.628" fy="241.049" gradientTransform="matrix(-0.999176,-4.0586125e-2,-4.0091738e-2,0.9870049,587.79647,48.361326)" gradientUnits="userSpaceOnUse" xlink:href="#linearGradient6793"/><radialGradient id="radialGradient2611" cx="353.628" cy="241.049" r="220.119" fx="353.628" fy="241.049" gradientTransform="matrix(-1,0,0,0.9878188,582.03434,46.933265)" gradientUnits="userSpaceOnUse" xlink:href="#linearGradient6793"/><radialGradient id="radialGradient2613" cx="353.628" cy="241.049" r="220.119" fx="353.628" fy="241.049" gradientTransform="matrix(-1,0,0,0.9878188,582.03434,46.933265)" gradientUnits="userSpaceOnUse" xlink:href="#linearGradient6793"/><radialGradient id="radialGradient2615" cx="353.628" cy="241.049" r="220.119" fx="353.628" fy="241.049" gradientTransform="matrix(-1,0,0,0.9878188,582.03434,46.933265)" gradientUnits="userSpaceOnUse" xlink:href="#linearGradient6793"/><radialGradient id="radialGradient2617" cx="353.628" cy="241.049" r="220.119" fx="353.628" fy="241.049" gradientTransform="matrix(-0.999176,-4.0586125e-2,-4.0091738e-2,0.9870049,587.79647,48.361326)" gradientUnits="userSpaceOnUse" xlink:href="#linearGradient6793"/><radialGradient id="radialGradient2619" cx="353.628" cy="241.049" r="220.119" fx="353.628" fy="241.049" gradientTransform="matrix(-1,0,0,0.9878188,582.03434,46.933265)" gradientUnits="userSpaceOnUse" xlink:href="#linearGradient6793"/><radialGradient id="radialGradient2621" cx="353.628" cy="241.049" r="220.119" fx="353.628" fy="241.049" gradientTransform="matrix(-1,0,0,0.9878188,582.03434,46.933265)" gradientUnits="userSpaceOnUse" xlink:href="#linearGradient6793"/><radialGradient id="radialGradient2623" cx="353.628" cy="241.049" r="220.119" fx="353.628" fy="241.049" gradientTransform="matrix(-1,0,0,0.9878188,582.03434,46.933265)" gradientUnits="userSpaceOnUse" xlink:href="#linearGradient6793"/><radialGradient id="radialGradient2625" cx="353.628" cy="241.049" r="220.119" fx="353.628" fy="241.049" gradientTransform="matrix(-1,0,0,0.9878188,582.03434,46.933265)" gradientUnits="userSpaceOnUse" xlink:href="#linearGradient6793"/><filter id="filter2432"><feColorMatrix id="feColorMatrix2436" values="0.623 0.969 0.289 0 0 0.349 0.69 0.19 0 0 0.172 0.13 0.31 0 0 0 0 0 1 0"/></filter></defs><g id="layer3" style="display:none"><path id="path2544" d="M 324.38759,135.62452 C 279.007,138.89872 199.23785,216.07795 210.45442,215.68696 C 303.23168,212.45304 361.18255,217.79208 433.57235,240.26806 C 444.29098,243.59605 422.00588,143.15814 324.38759,135.62452 z" style="fill:#dbdbdb;fill-opacity:1;fill-rule:nonzero;stroke:none;stroke-width:25;stroke-linecap:butt;stroke-linejoin:round;marker-mid:none;stroke-miterlimit:4;stroke-dasharray:none;stroke-dashoffset:1;stroke-opacity:1;display:inline;filter:url(#filter3985);enable-background:new"/><path id="path2546" d="M 186.37822,72.150309 C 160.57833,109.62675 157.33905,256.29261 163.99898,247.2588 C 218.88951,172.80293 350.45207,80.852043 428.9148,43.825512 C 525.90264,-1.943011 243.81268,3.6410539 186.37822,72.150309 z" style="fill:#dbdbdb;fill-opacity:1;fill-rule:nonzero;stroke:#000;stroke-width:0;stroke-linecap:butt;stroke-linejoin:round;marker-mid:none;stroke-miterlimit:4;stroke-dasharray:none;stroke-dashoffset:1;stroke-opacity:1;display:inline;filter:url(#filter3989);enable-background:new"/><path id="path2548" d="M 69.5521,231.67976 C 84.41923,274.68075 179.56014,331.84683 176.28962,321.11052 C 149.23774,232.30583 139.45061,174.93843 142.49683,99.2009 C 142.94789,87.986573 51.65499,135.42084 69.5521,231.67976 z" style="fill:#dbdbdb;fill-opacity:1;fill-rule:nonzero;stroke:none;stroke-width:25;stroke-linecap:butt;stroke-linejoin:round;marker-mid:none;stroke-miterlimit:4;stroke-dasharray:none;stroke-dashoffset:1;stroke-opacity:1;display:inline;filter:url(#filter3993);enable-background:new"/><path id="path2550" d="M 81.97729,372.8505 C 124.11382,390.0153 229.81624,356.15164 219.58677,351.53404 C 134.97422,313.33984 85.38277,282.88504 30.43637,230.67061 C 22.30057,222.93932 -2.20627,322.85836 81.97729,372.8505 z" style="fill:#dbdbdb;fill-opacity:1;fill-rule:nonzero;stroke:none;stroke-width:25;stroke-linecap:butt;stroke-linejoin:round;marker-mid:none;stroke-miterlimit:4;stroke-dasharray:none;stroke-dashoffset:1;stroke-opacity:1;display:inline;filter:url(#filter3997);enable-background:new"/><path id="path2552" d="M 203.88504,453.62703 C 244.17168,432.48219 286.43063,329.84726 276.30588,334.69014 C 192.55947,374.74786 137.30727,393.02355 61.96881,401.3645 C 50.8136,402.59953 111.39638,485.75077 203.88504,453.62703 z" style="fill:#dbdbdb;fill-opacity:1;fill-rule:nonzero;stroke:none;stroke-width:25;stroke-linecap:butt;stroke-linejoin:round;marker-mid:none;stroke-miterlimit:4;stroke-dasharray:none;stroke-dashoffset:1;stroke-opacity:1;display:inline;filter:url(#filter4001);enable-background:new"/><path id="path2554" d="M 345.96158,410.03296 C 355.80284,365.6115 304.66105,267.10125 301.82779,277.96113 C 278.39266,367.78804 256.70286,421.79138 214.46246,484.72945 C 208.208,494.04859 310.82416,501.41921 345.96158,410.03296 z" style="fill:#dbdbdb;fill-opacity:1;fill-rule:nonzero;stroke:none;stroke-width:25;stroke-linecap:butt;stroke-linejoin:round;marker-mid:none;stroke-miterlimit:4;stroke-dasharray:none;stroke-dashoffset:1;stroke-opacity:1;display:inline;filter:url(#filter4005);enable-background:new"/><path id="path2556" d="M 401.89383,270.24178 C 374.5208,233.89852 266.4087,208.76833 272.82303,217.97814 C 325.87887,294.15661 352.83718,345.73234 373.23475,418.73503 C 376.25499,429.54441 448.53158,356.32899 401.89383,270.24178 z" style="fill:#dbdbdb;fill-opacity:1;fill-rule:nonzero;stroke:none;stroke-width:25;stroke-linecap:butt;stroke-linejoin:round;marker-mid:none;stroke-miterlimit:4;stroke-dasharray:none;stroke-dashoffset:1;stroke-opacity:1;display:inline;filter:url(#filter4009);enable-background:new"/></g><g id="g2591" transform="translate(-14.910766,-7.0850308)" style="filter:url(#filter2432)"><g id="layer1"><path id="path3212" d="M 324.38759,135.62452 C 279.007,138.89872 199.23785,216.07795 210.45442,215.68696 C 303.23168,212.45304 361.18255,217.79208 433.57235,240.26806 C 444.29098,243.59605 422.00588,143.15814 324.38759,135.62452 z" style="fill:url(#radialGradient2607);fill-opacity:1;fill-rule:nonzero;stroke:none;stroke-width:25;stroke-linecap:butt;stroke-linejoin:round;marker-mid:none;stroke-miterlimit:4;stroke-dasharray:none;stroke-dashoffset:1;stroke-opacity:1"/><path id="path3215" d="M 186.37822,72.150309 C 160.57833,109.62675 157.33905,256.29261 163.99898,247.2588 C 218.88951,172.80293 350.45207,80.852043 428.9148,43.825512 C 525.90264,-1.943011 243.81268,3.6410539 186.37822,72.150309 z" style="fill:url(#radialGradient2609);fill-opacity:1;fill-rule:nonzero;stroke:#000;stroke-width:0;stroke-linecap:butt;stroke-linejoin:round;marker-mid:none;stroke-miterlimit:4;stroke-dasharray:none;stroke-dashoffset:1;stroke-opacity:1"/><path id="path3217" d="M 69.5521,231.67976 C 84.41923,274.68075 179.56014,331.84683 176.28962,321.11052 C 149.23774,232.30583 139.45061,174.93843 142.49683,99.2009 C 142.94789,87.986573 51.65499,135.42084 69.5521,231.67976 z" style="fill:#cde1e9;fill-opacity:1;fill-rule:nonzero;stroke:none;stroke-width:25;stroke-linecap:butt;stroke-linejoin:round;marker-mid:none;stroke-miterlimit:4;stroke-dasharray:none;stroke-dashoffset:1;stroke-opacity:1"/><path id="path3219" d="M 81.97729,372.8505 C 124.11382,390.0153 229.81624,356.15164 219.58677,351.53404 C 134.97422,313.33984 85.38277,282.88504 30.43637,230.67061 C 22.30057,222.93932 -2.20627,322.85836 81.97729,372.8505 z" style="fill:#cde1e9;fill-opacity:1;fill-rule:nonzero;stroke:none;stroke-width:25;stroke-linecap:butt;stroke-linejoin:round;marker-mid:none;stroke-miterlimit:4;stroke-dasharray:none;stroke-dashoffset:1;stroke-opacity:1"/><path id="path3221" d="M 203.88504,453.62703 C 244.17168,432.48219 286.43063,329.84726 276.30588,334.69014 C 192.55947,374.74786 137.30727,393.02355 61.96881,401.3645 C 50.8136,402.59953 111.39638,485.75077 203.88504,453.62703 z" style="fill:url(#radialGradient2611);fill-opacity:1;fill-rule:nonzero;stroke:none;stroke-width:25;stroke-linecap:butt;stroke-linejoin:round;marker-mid:none;stroke-miterlimit:4;stroke-dasharray:none;stroke-dashoffset:1;stroke-opacity:1"/><path id="path3223" d="M 345.96158,410.03296 C 355.80284,365.6115 304.66105,267.10125 301.82779,277.96113 C 278.39266,367.78804 256.70286,421.79138 214.46246,484.72945 C 208.208,494.04859 310.82416,501.41921 345.96158,410.03296 z" style="fill:url(#radialGradient2613);fill-opacity:1;fill-rule:nonzero;stroke:none;stroke-width:25;stroke-linecap:butt;stroke-linejoin:round;marker-mid:none;stroke-miterlimit:4;stroke-dasharray:none;stroke-dashoffset:1;stroke-opacity:1"/><path id="path3225" d="M 401.89383,270.24178 C 374.5208,233.89852 266.4087,208.76833 272.82303,217.97814 C 325.87887,294.15661 352.83718,345.73234 373.23475,418.73503 C 376.25499,429.54441 448.53158,356.32899 401.89383,270.24178 z" style="fill:url(#radialGradient2615);fill-opacity:1;fill-rule:nonzero;stroke:none;stroke-width:25;stroke-linecap:butt;stroke-linejoin:round;marker-mid:none;stroke-miterlimit:4;stroke-dasharray:none;stroke-dashoffset:1;stroke-opacity:1"/></g><g id="layer2" style="display:inline;filter:url(#filter3383)"><path id="path3372" d="M 394.59375,14.1875 C 327.87379,13.967753 219.5793,32.549337 186.375,72.15625 C 160.57511,109.63269 157.34007,256.28381 164,247.25 C 218.89053,172.79413 350.44352,80.839031 428.90625,43.8125 C 469.823,24.503904 443.28129,14.347856 394.59375,14.1875 z M 367.15625,30.5625 C 405.80187,30.689782 426.85256,38.767598 394.375,54.09375 C 332.09539,83.48347 227.69423,156.46333 184.125,215.5625 C 178.8387,222.73306 181.39639,106.34058 201.875,76.59375 C 228.23083,45.155858 314.19744,30.388077 367.15625,30.5625 z" style="fill:url(#radialGradient2617);fill-opacity:1;fill-rule:nonzero;stroke:#000;stroke-width:0;stroke-linecap:butt;stroke-linejoin:round;marker-mid:none;stroke-miterlimit:4;stroke-dasharray:none;stroke-dashoffset:1;stroke-opacity:1;display:inline;enable-background:new"/><path id="path3387" d="M 324.375,135.625 C 278.9944,138.89919 199.25218,216.07849 210.46875,215.6875 C 303.24601,212.45357 361.1727,217.80527 433.5625,240.28125 C 444.28112,243.60923 421.99329,143.15862 324.375,135.625 z M 325.25,144.59375 C 398.96715,150.28282 415.81299,226.13816 407.71875,223.625 C 353.05308,206.6521 309.28018,202.62038 239.21875,205.0625 C 230.74848,205.35776 290.98053,147.06629 325.25,144.59375 z" style="fill:url(#radialGradient2619);fill-opacity:1;fill-rule:nonzero;stroke:none;stroke-width:25;stroke-linecap:butt;stroke-linejoin:round;marker-mid:none;stroke-miterlimit:4;stroke-dasharray:none;stroke-dashoffset:1;stroke-opacity:1;display:inline;enable-background:new"/><path id="path3397" d="M 275.40625,216.09375 C 273.01047,216.21702 272.01071,216.81752 272.8125,217.96875 C 325.86834,294.14723 352.85243,345.74731 373.25,418.75 C 376.27025,429.55939 448.544,356.33721 401.90625,270.25 C 377.95485,238.44964 292.17672,215.23085 275.40625,216.09375 z M 292.8125,232.75 C 306.62803,232.03914 377.26881,251.17784 397,277.375 C 435.42021,348.29371 375.89431,408.59228 373.40625,399.6875 C 356.60272,339.54783 334.39495,297.06836 290.6875,234.3125 C 290.02698,233.36412 290.83885,232.85155 292.8125,232.75 z" style="fill:url(#radialGradient2621);fill-opacity:1;fill-rule:nonzero;stroke:none;stroke-width:25;stroke-linecap:butt;stroke-linejoin:round;marker-mid:none;stroke-miterlimit:4;stroke-dasharray:none;stroke-dashoffset:1;stroke-opacity:1;display:inline;enable-background:new"/><path id="path3413" d="M 302.53125,277.125 C 302.1974,277.17026 301.94531,277.45969 301.8125,277.96875 C 278.37737,367.79567 256.70915,421.78068 214.46875,484.71875 C 208.21429,494.03788 310.83133,501.4175 345.96875,410.03125 C 355.3487,367.69205 309.31945,276.20467 302.53125,277.125 z M 298.78125,319.4375 C 303.6069,318.78325 336.32433,383.80782 329.65625,413.90625 C 304.67748,478.87163 231.74128,473.65612 236.1875,467.03125 C 266.21569,422.28934 281.62149,383.88812 298.28125,320.03125 C 298.37566,319.66937 298.54392,319.46968 298.78125,319.4375 z" style="fill:url(#radialGradient2623);fill-opacity:1;fill-rule:nonzero;stroke:none;stroke-width:25;stroke-linecap:butt;stroke-linejoin:round;marker-mid:none;stroke-miterlimit:4;stroke-dasharray:none;stroke-dashoffset:1;stroke-opacity:1;display:inline;enable-background:new"/><path id="path3423" d="M 276.75,334.53125 C 276.61717,334.55516 276.4707,334.61183 276.3125,334.6875 C 192.56609,374.7452 137.30721,393.03405 61.96875,401.375 C 50.813539,402.61003 111.38634,485.74874 203.875,453.625 C 243.53216,432.81053 285.1182,333.02483 276.75,334.53125 z M 252.625,350.71875 C 259.11602,349.55026 226.88616,426.94846 196.125,443.09375 C 124.38361,468.01142 77.3784,403.52048 86.03125,402.5625 C 144.4696,396.09261 187.32103,381.91564 252.28125,350.84375 C 252.40396,350.78505 252.52197,350.7373 252.625,350.71875 z" style="fill:url(#radialGradient2625);fill-opacity:1;fill-rule:nonzero;stroke:none;stroke-width:25;stroke-linecap:butt;stroke-linejoin:round;marker-mid:none;stroke-miterlimit:4;stroke-dasharray:none;stroke-dashoffset:1;stroke-opacity:1;display:inline;enable-background:new"/></g></g></svg>