<svg xmlns="http://www.w3.org/2000/svg" xmlns:cc="http://web.resource.org/cc/" xmlns:svg="http://www.w3.org/2000/svg" xmlns:xlink="http://www.w3.org/1999/xlink" id="svg2" width="48" height="48" version="1.0"><defs id="defs4"><linearGradient id="linearGradient3690"><stop style="stop-color:white;stop-opacity:1" id="stop3692" offset="0"/><stop style="stop-color:white;stop-opacity:.46875" id="stop3694" offset="1"/></linearGradient><linearGradient id="linearGradient3674"><stop style="stop-color:#3465a4;stop-opacity:1" id="stop3676" offset="0"/><stop style="stop-color:#729fcf;stop-opacity:1" id="stop3678" offset="1"/></linearGradient><linearGradient id="linearGradient2781"><stop style="stop-color:#d3d7cf;stop-opacity:1" id="stop2783" offset="0"/><stop style="stop-color:#eeeeec;stop-opacity:1" id="stop2785" offset="1"/></linearGradient><linearGradient id="linearGradient2787" x1="24.926" x2="24.926" y1="40" y2="19.539" gradientUnits="userSpaceOnUse" xlink:href="#linearGradient2781"/><linearGradient id="linearGradient3680" x1="23.069" x2="23.069" y1="6.799" y2="12.403" gradientUnits="userSpaceOnUse" xlink:href="#linearGradient3674"/><linearGradient id="linearGradient3696" x1="9.5" x2="9.5" y1="16.264" y2="13.409" gradientUnits="userSpaceOnUse" xlink:href="#linearGradient3690"/><linearGradient id="linearGradient5048"><stop id="stop5050" offset="0" style="stop-color:black;stop-opacity:0"/><stop style="stop-color:black;stop-opacity:1" id="stop5056" offset=".5"/><stop id="stop5052" offset="1" style="stop-color:black;stop-opacity:0"/></linearGradient><linearGradient id="linearGradient5060"><stop id="stop5062" offset="0" style="stop-color:black;stop-opacity:1"/><stop id="stop5064" offset="1" style="stop-color:black;stop-opacity:0"/></linearGradient><linearGradient id="linearGradient3843" x1="302.857" x2="302.857" y1="366.648" y2="609.505" gradientTransform="matrix(2.774389,0,0,1.969706,-1892.179,-872.8854)" gradientUnits="userSpaceOnUse" xlink:href="#linearGradient5048"/><radialGradient id="radialGradient3845" cx="605.714" cy="486.648" r="117.143" fx="605.714" fy="486.648" gradientTransform="matrix(2.774389,0,0,1.969706,-1891.633,-872.8854)" gradientUnits="userSpaceOnUse" xlink:href="#linearGradient5060"/><radialGradient id="radialGradient3847" cx="605.714" cy="486.648" r="117.143" fx="605.714" fy="486.648" gradientTransform="matrix(-2.774389,0,0,1.969706,112.7623,-872.8854)" gradientUnits="userSpaceOnUse" xlink:href="#linearGradient5060"/><linearGradient id="linearGradient2378"><stop id="stop2380" offset="0" style="stop-color:#fff;stop-opacity:1"/><stop style="stop-color:#fefede;stop-opacity:.91836733" id="stop4146" offset=".25"/><stop style="stop-color:#f5f328;stop-opacity:1" id="stop2386" offset=".5"/><stop id="stop2382" offset="1" style="stop-color:#f5f32d;stop-opacity:.12234043"/></linearGradient><radialGradient id="radialGradient4835" cx="38.659" cy="9.341" r="8.342" fx="38.659" fy="9.341" gradientUnits="userSpaceOnUse" xlink:href="#linearGradient2378"/></defs><metadata id="metadata7"/><g id="layer1"><g style="opacity:.58730164;display:inline" id="g5022" transform="matrix(2.019273e-2,0,0,1.254292e-2,42.96013,37.39018)"><rect id="rect4173" width="1339.633" height="478.357" x="-1559.252" y="-150.697" style="opacity:.40206185;color:#000;fill:url(#linearGradient3843);fill-opacity:1;fill-rule:nonzero;stroke:none;stroke-width:1;stroke-linecap:round;stroke-linejoin:miter;marker:none;marker-start:none;marker-mid:none;marker-end:none;stroke-miterlimit:4;stroke-dasharray:none;stroke-dashoffset:0;stroke-opacity:1;visibility:visible;display:inline;overflow:visible"/><path id="path5058" d="M -219.61876,-150.68038 C -219.61876,-150.68038 -219.61876,327.65041 -219.61876,327.65041 C -76.744594,328.55086 125.78146,220.48075 125.78138,88.454235 C 125.78138,-43.572302 -33.655436,-150.68036 -219.61876,-150.68038 z" style="opacity:.40206185;color:#000;fill:url(#radialGradient3845);fill-opacity:1;fill-rule:nonzero;stroke:none;stroke-width:1;stroke-linecap:round;stroke-linejoin:miter;marker:none;marker-start:none;marker-mid:none;marker-end:none;stroke-miterlimit:4;stroke-dasharray:none;stroke-dashoffset:0;stroke-opacity:1;visibility:visible;display:inline;overflow:visible"/><path style="opacity:.40206185;color:#000;fill:url(#radialGradient3847);fill-opacity:1;fill-rule:nonzero;stroke:none;stroke-width:1;stroke-linecap:round;stroke-linejoin:miter;marker:none;marker-start:none;marker-mid:none;marker-end:none;stroke-miterlimit:4;stroke-dasharray:none;stroke-dashoffset:0;stroke-opacity:1;visibility:visible;display:inline;overflow:visible" id="path5018" d="M -1559.2523,-150.68038 C -1559.2523,-150.68038 -1559.2523,327.65041 -1559.2523,327.65041 C -1702.1265,328.55086 -1904.6525,220.48075 -1904.6525,88.454235 C -1904.6525,-43.572302 -1745.2157,-150.68036 -1559.2523,-150.68038 z"/></g><rect style="opacity:1;fill:url(#linearGradient2787);stroke:#888a85;stroke-width:1.00000024;stroke-miterlimit:4;stroke-dasharray:none;stroke-opacity:1;fill-opacity:1" id="rect1887" width="33" height="30.5" x="8.5" y="9" rx="2" ry="2"/><path style="fill:url(#linearGradient3680);stroke:#204a87;stroke-width:1.00000048;stroke-miterlimit:4;stroke-opacity:1;fill-opacity:1" id="rect2776" d="M 8.499999,14.030334 L 8.499999,10.500005 C 8.499999,9.3920048 9.391999,8.5000048 10.499999,8.5000048 L 39.499999,8.5000048 C 40.607999,8.5000048 41.499999,9.3920048 41.499999,10.500005 L 41.499999,14.030334"/><rect style="opacity:.8;fill:none;stroke:url(#linearGradient3696);stroke-width:1.00000083;stroke-miterlimit:4;stroke-dasharray:none;stroke-opacity:1;fill-opacity:1" id="rect2779" width="31" height="29" x="9.5" y="9.5" rx=".995" ry=".995"/><g id="g4831" transform="translate(-45.44588,7.00315)"><path style="fill:url(#radialGradient4835);fill-opacity:1;fill-rule:evenodd;stroke:none;stroke-width:1px;stroke-linecap:butt;stroke-linejoin:miter;stroke-opacity:1;display:inline" id="path4827" d="M 47.000506,9.3411446 C 47.000506,13.948111 43.265822,17.682796 38.658855,17.682796 C 34.051888,17.682796 30.317204,13.948111 30.317204,9.3411446 C 30.317204,4.734178 34.051888,0.9994936 38.658855,0.9994936 C 43.265822,0.9994936 47.000506,4.734178 47.000506,9.3411446 z" transform="matrix(1.14985,0,0,1.14985,37.40235,-4.152422)"/><path style="opacity:1;color:#000;fill:#fff;fill-opacity:1;fill-rule:evenodd;stroke:none;stroke-width:.5;stroke-linecap:butt;stroke-linejoin:miter;marker:none;marker-start:none;marker-mid:none;marker-end:none;stroke-miterlimit:4;stroke-dasharray:none;stroke-dashoffset:0;stroke-opacity:1;visibility:visible;display:inline;overflow:visible" id="path4829" d="M 44.520054,15.50279 C 44.012883,16.381236 39.925351,15.341967 38.998703,15.754538 C 38.072055,16.167108 36.109289,19.900142 35.117113,19.689249 C 34.124936,19.478355 33.850222,15.26973 33.171495,14.515926 C 32.492767,13.762123 28.335913,13.048993 28.229885,12.040207 C 28.123857,11.031421 32.041607,9.4696164 32.548778,8.5911701 C 33.055949,7.7127238 32.449637,3.5389508 33.376285,3.1263806 C 34.302933,2.7138103 36.998949,5.957187 37.991126,6.1680807 C 38.983302,6.3789743 42.765436,4.5125708 43.444163,5.2663741 C 44.122891,6.0201775 41.871371,9.5864995 41.977399,10.595285 C 42.083426,11.604071 45.027225,14.624343 44.520054,15.50279 z" transform="matrix(0.674116,0.299577,-0.299577,0.674116,60.46181,-11.83579)"/></g></g></svg>